<?xml version="1.0" standalone="no"?><!DOCTYPE svg PUBLIC "-//W3C//DTD SVG 1.1//EN" "http://www.w3.org/Graphics/SVG/1.1/DTD/svg11.dtd"><svg t="1765676948854" class="icon" viewBox="0 0 1024 1024" version="1.1" xmlns="http://www.w3.org/2000/svg" p-id="6626" xmlns:xlink="http://www.w3.org/1999/xlink" width="200" height="200"><path d="M704 128l-128 0L576 64c0-35.2-28.8-64-64-64l-128 0c-35.2 0-64 28.8-64 64l0 64L192 128l0 128 512 0L704 128zM512 128l-128 0L384 64.128c0.032-0.032 0.064-0.064 0.128-0.128l127.776 0c0.032 0.032 0.096 0.064 0.128 0.128L512 128zM832 320 832 160c0-17.6-14.4-32-32-32l-64 0 0 64 32 0 0 128L384 320l0 448L128 768 128 192l32 0L160 128 96 128c-17.6 0-32 14.4-32 32l0 640c0 17.6 14.4 32 32 32l288 0 0 192 448 0 192-192L1024 320 832 320zM832 933.504 832 832l101.504 0L832 933.504zM960 768l-192 0 0 192L448 960 448 384l512 0L960 768z" fill="#000000" p-id="6627"></path></svg>